<?xml version="1.0" encoding="UTF-8" standalone="no"?>
<!-- Created with Inkscape (http://www.inkscape.org/) -->

<svg
   xmlns:dc="http://purl.org/dc/elements/1.1/"
   xmlns:cc="http://creativecommons.org/ns#"
   xmlns:rdf="http://www.w3.org/1999/02/22-rdf-syntax-ns#"
   xmlns:svg="http://www.w3.org/2000/svg"
   xmlns="http://www.w3.org/2000/svg"
   xmlns:sodipodi="http://sodipodi.sourceforge.net/DTD/sodipodi-0.dtd"
   xmlns:inkscape="http://www.inkscape.org/namespaces/inkscape"
   width="420"
   height="80"
   viewBox="0 0 419.99999 79.999996"
   id="svg6223"
   version="1.1"
   inkscape:version="0.91 r13725"
   sodipodi:docname="logo.svg"
   inkscape:export-filename="C:\Documents and Settings\user\git\brainsharp\art\logo.160px.png"
   inkscape:export-xdpi="180"
   inkscape:export-ydpi="180">
  <title
     id="title6923">The logo of Brainsharp</title>
  <defs
     id="defs6225" />
  <sodipodi:namedview
     id="base"
     pagecolor="#202247"
     bordercolor="#666666"
     borderopacity="1.0"
     inkscape:pageopacity="1"
     inkscape:pageshadow="2"
     inkscape:zoom="5.6568542"
     inkscape:cx="175.41844"
     inkscape:cy="19.172888"
     inkscape:document-units="px"
     inkscape:current-layer="layer6"
     showgrid="true"
     units="px"
     width="160mm"
     inkscape:snap-grids="false"
     inkscape:snap-page="false"
     showguides="false"
     inkscape:window-width="1280"
     inkscape:window-height="968"
     inkscape:window-x="-4"
     inkscape:window-y="-4"
     inkscape:window-maximized="1"
     showborder="true"
     borderlayer="true">
    <inkscape:grid
       type="xygrid"
       id="grid6897" />
  </sodipodi:namedview>
  <metadata
     id="metadata6228">
    <rdf:RDF>
      <cc:Work
         rdf:about="">
        <dc:format>image/svg+xml</dc:format>
        <dc:type
           rdf:resource="http://purl.org/dc/dcmitype/StillImage" />
        <dc:title>The logo of Brainsharp</dc:title>
        <cc:license
           rdf:resource="http://creativecommons.org/publicdomain/zero/1.0/" />
        <dc:creator>
          <cc:Agent>
            <dc:title>Theodore Tsirpanis</dc:title>
          </cc:Agent>
        </dc:creator>
        <dc:contributor>
          <cc:Agent>
            <dc:title></dc:title>
          </cc:Agent>
        </dc:contributor>
        <dc:rights>
          <cc:Agent>
            <dc:title>The brain icon is made by Madebyoliver from www.flaticon.com is licensed by CC 3.0 BY.</dc:title>
          </cc:Agent>
        </dc:rights>
      </cc:Work>
      <cc:License
         rdf:about="http://creativecommons.org/publicdomain/zero/1.0/">
        <cc:permits
           rdf:resource="http://creativecommons.org/ns#Reproduction" />
        <cc:permits
           rdf:resource="http://creativecommons.org/ns#Distribution" />
        <cc:permits
           rdf:resource="http://creativecommons.org/ns#DerivativeWorks" />
      </cc:License>
    </rdf:RDF>
  </metadata>
  <g
     inkscape:groupmode="layer"
     id="layer4"
     inkscape:label="Background"
     style="display:inline">
    <rect
       style="opacity:1;fill:#202247;fill-opacity:1;fill-rule:nonzero;stroke:none;stroke-width:0;stroke-linecap:butt;stroke-linejoin:round;stroke-miterlimit:4;stroke-dasharray:none;stroke-dashoffset:0;stroke-opacity:0.96174867"
       id="rect3383"
       width="420"
       height="79.999992"
       x="5.0316175e-006"
       y="1.2050986e-006" />
  </g>
  <g
     inkscape:label="Layer 1"
     inkscape:groupmode="layer"
     id="layer1"
     transform="translate(0,-972.38662)"
     style="display:inline">
    <g
       style="font-style:normal;font-weight:normal;font-size:80px;line-height:125%;font-family:sans-serif;letter-spacing:0px;word-spacing:0px;fill:#800080;fill-opacity:1;stroke:none;stroke-width:1px;stroke-linecap:butt;stroke-linejoin:miter;stroke-opacity:1"
       id="text6771"
       transform="matrix(0.9930728,0,0,0.9687182,-14.181198,28.587098)">
      <path
         d="m 22.170744,1012.3678 0,21.3672 12.65625,0 q 6.367188,0 9.414063,-2.6172 3.085937,-2.6563 3.085937,-8.0859 0,-5.4688 -3.085937,-8.0469 -3.046875,-2.6172 -9.414063,-2.6172 l -12.65625,0 z m 0,-23.98438 0,17.57808 11.679688,0 q 5.78125,0 8.59375,-2.1484 2.851562,-2.1875 2.851562,-6.64061 0,-4.41407 -2.851562,-6.60157 -2.8125,-2.1875 -8.59375,-2.1875 l -11.679688,0 z m -7.890625,-6.48437 20.15625,0 q 9.023438,0 13.90625,3.75 4.882813,3.75 4.882813,10.66406 0,5.35159 -2.5,8.51559 -2.5,3.1641 -7.34375,3.9453 5.820312,1.25 9.023437,5.2344 3.242188,3.9453 3.242188,9.8828 0,7.8125 -5.3125,12.0703 -5.3125,4.2579 -15.117188,4.2579 l -20.9375,0 0,-58.32035 z"
         id="path6837"
         inkscape:connector-curvature="0" />
      <path
         d="m 94.162932,1003.1881 q -1.210938,-0.7031 -2.65625,-1.0156 -1.40625,-0.3516 -3.125,-0.3516 -6.09375,0 -9.375,3.9844 -3.242188,3.9453 -3.242188,11.3672 l 0,23.0469 -7.226562,0 0,-43.75004 7.226562,0 0,6.79684 q 2.265625,-3.98434 5.898438,-5.8984 3.632812,-1.95313 8.828125,-1.95313 0.742187,0 1.640625,0.11719 0.898437,0.0781 1.992187,0.27344 l 0.03906,7.3828 z"
         id="path6839"
         inkscape:connector-curvature="0" />
      <path
         d="m 121.66293,1018.2272 q -8.71094,0 -12.07031,1.9922 -3.35938,1.9921 -3.35938,6.7968 0,3.8282 2.5,6.0938 2.53907,2.2265 6.875,2.2265 5.97657,0 9.57032,-4.2187 3.63281,-4.2578 3.63281,-11.2891 l 0,-1.6015 -7.14844,0 z m 14.33594,-2.9688 0,24.961 -7.1875,0 0,-6.6407 q -2.46094,3.9844 -6.13281,5.8985 -3.67188,1.875 -8.98438,1.875 -6.71875,0 -10.70312,-3.75 -3.945316,-3.7891 -3.945316,-10.1172 0,-7.3828 4.921876,-11.1328 4.96094,-3.75 14.76562,-3.75 l 10.07813,0 0,-0.7032 q 0,-4.9609 -3.28125,-7.6562 -3.24219,-2.7344 -9.14063,-2.7344 -3.75,0 -7.30468,0.8985 -3.55469,0.8984 -6.83594,2.6953 l 0,-6.64065 q 3.94531,-1.52344 7.65625,-2.26563 3.71094,-0.78125 7.22656,-0.78125 9.49219,0 14.17969,4.92183 4.6875,4.9219 4.6875,14.9219 z"
         id="path6841"
         inkscape:connector-curvature="0" />
      <path
         d="m 150.84262,996.46936 7.1875,0 0,43.75004 -7.1875,0 z"
         id="path6843"
         inkscape:connector-curvature="0"
         sodipodi:nodetypes="ccccc"
         style="opacity:1" />
      <path
         d="m 209.39731,1013.8131 0,26.4063 -7.1875,0 0,-26.1719 q 0,-6.211 -2.42188,-9.2969 -2.42187,-3.0859 -7.26562,-3.0859 -5.82032,0 -9.17969,3.7109 -3.35938,3.7109 -3.35938,10.1172 l 0,24.7266 -7.22656,0 0,-43.75004 7.22656,0 0,6.79684 q 2.57813,-3.94528 6.05469,-5.8984 3.51563,-1.95313 8.08594,-1.95313 7.53906,0 11.40625,4.68753 3.86719,4.6484 3.86719,13.7109 z"
         id="path6845"
         inkscape:connector-curvature="0" />
      <path
         d="m 251.70199,997.75842 0,6.79688 q -3.04687,-1.5625 -6.32812,-2.3438 -3.28125,-0.7812 -6.79688,-0.7812 -5.35156,0 -8.04687,1.6406 -2.65625,1.6406 -2.65625,4.9219 0,2.5 1.91406,3.9453 1.91406,1.4063 7.69531,2.6953 l 2.46094,0.5469 q 7.65625,1.6406 10.85938,4.6484 3.24218,2.9688 3.24218,8.3203 0,6.0938 -4.84375,9.6485 -4.80468,3.5547 -13.24218,3.5547 -3.51563,0 -7.34375,-0.7032 -3.78907,-0.664 -8.00782,-2.0312 l 0,-7.4219 q 3.98438,2.0703 7.85157,3.125 3.86718,1.0156 7.65625,1.0156 5.07812,0 7.8125,-1.7187 2.73437,-1.7578 2.73437,-4.9219 0,-2.9297 -1.99219,-4.4922 -1.95312,-1.5625 -8.63281,-3.0078 l -2.5,-0.5859 q -6.67969,-1.4063 -9.64844,-4.2969 -2.96875,-2.9297 -2.96875,-8.0078 0,-6.1719 4.375,-9.53125 4.375,-3.35938 12.42188,-3.35938 3.98437,0 7.5,0.58594 3.51562,0.58594 6.48437,1.75781 z"
         id="path6847"
         inkscape:connector-curvature="0" />
      <path
         d="m 301.89731,1013.8131 0,26.4063 -7.1875,0 0,-26.1719 q 0,-6.211 -2.42188,-9.2969 -2.42187,-3.0859 -7.26562,-3.0859 -5.82032,0 -9.17969,3.7109 -3.35938,3.7109 -3.35938,10.1172 l 0,24.7266 -7.22656,0 0,-60.78129 7.22656,0 0,23.82809 q 2.57813,-3.94528 6.05469,-5.8984 3.51563,-1.95313 8.08594,-1.95313 7.53906,0 11.40625,4.68753 3.86719,4.6484 3.86719,13.7109 z"
         id="path6849"
         inkscape:connector-curvature="0" />
      <path
         d="m 336.19418,1018.2272 q -8.71094,0 -12.07031,1.9922 -3.35938,1.9921 -3.35938,6.7968 0,3.8282 2.5,6.0938 2.53907,2.2265 6.875,2.2265 5.97657,0 9.57032,-4.2187 3.63281,-4.2578 3.63281,-11.2891 l 0,-1.6015 -7.14844,0 z m 14.33594,-2.9688 0,24.961 -7.1875,0 0,-6.6407 q -2.46094,3.9844 -6.13281,5.8985 -3.67188,1.875 -8.98438,1.875 -6.71875,0 -10.70312,-3.75 -3.94532,-3.7891 -3.94532,-10.1172 0,-7.3828 4.92188,-11.1328 4.96094,-3.75 14.76562,-3.75 l 10.07813,0 0,-0.7032 q 0,-4.9609 -3.28125,-7.6562 -3.24219,-2.7344 -9.14063,-2.7344 -3.75,0 -7.30468,0.8985 -3.55469,0.8984 -6.83594,2.6953 l 0,-6.64065 q 3.94531,-1.52344 7.65625,-2.26563 3.71094,-0.78125 7.22656,-0.78125 9.49219,0 14.17969,4.92183 4.6875,4.9219 4.6875,14.9219 z"
         id="path6851"
         inkscape:connector-curvature="0" />
      <path
         d="m 390.72543,1003.1881 q -1.21094,-0.7031 -2.65625,-1.0156 -1.40625,-0.3516 -3.125,-0.3516 -6.09375,0 -9.375,3.9844 -3.24219,3.9453 -3.24219,11.3672 l 0,23.0469 -7.22656,0 0,-43.75004 7.22656,0 0,6.79684 q 2.26563,-3.98434 5.89844,-5.8984 3.63281,-1.95313 8.82813,-1.95313 0.74218,0 1.64062,0.11719 0.89844,0.0781 1.99219,0.27344 l 0.0391,7.3828 z"
         id="path6853"
         inkscape:connector-curvature="0" />
      <path
         d="m 405.29574,1033.6569 0,23.2031 -7.22656,0 0,-60.39064 7.22656,0 0,6.64064 q 2.26563,-3.90626 5.70313,-5.78126 3.47656,-1.91407 8.28125,-1.91407 7.96875,0 12.92969,6.32813 5,6.3281 5,16.6406 0,10.3125 -5,16.6406 -4.96094,6.3282 -12.92969,6.3282 -4.80469,0 -8.28125,-1.875 -3.4375,-1.9141 -5.70313,-5.8203 z m 24.45313,-15.2735 q 0,-7.9297 -3.28125,-12.4219 -3.24219,-4.5312 -8.94531,-4.5312 -5.70313,0 -8.98438,4.5312 -3.24219,4.4922 -3.24219,12.4219 0,7.9297 3.24219,12.461 3.28125,4.4921 8.98438,4.4921 5.70312,0 8.94531,-4.4921 3.28125,-4.5313 3.28125,-12.461 z"
         id="path6855"
         inkscape:connector-curvature="0" />
    </g>
  </g>
  <g
     inkscape:groupmode="layer"
     id="layer2"
     inkscape:label="Layer 2"
     style="display:inline"
     transform="translate(0,-8.582682)">
    <g
       id="g6779"
       transform="matrix(0.16949151,0,0,0.17857141,128.65253,7.3326772)">
      <path
         id="path6781"
         style="fill:#378bba"
         d="M 5,63 61,7 61,35 33,63 61,91 61,119 5,63 Z"
         inkscape:connector-curvature="0" />
      <path
         id="path6783"
         style="fill:#378bba"
         d="M 41,63 61,43 61,83 41,63 Z"
         inkscape:connector-curvature="0" />
      <path
         id="path6785"
         style="fill:#30b9db"
         d="M 123,63 65,7 l 0,28 28,28 -28,28 0,28 58,-56 z"
         inkscape:connector-curvature="0" />
    </g>
  </g>
  <g
     inkscape:groupmode="layer"
     id="layer3"
     inkscape:label="Layer 3"
     style="display:inline"
     transform="translate(0,-8.582682)">
    <text
       xml:space="preserve"
       style="font-style:normal;font-variant:normal;font-weight:normal;font-stretch:normal;font-size:11.41074276px;line-height:125%;font-family:Ubuntu;-inkscape-font-specification:Ubuntu;letter-spacing:0px;word-spacing:0px;fill:#008000;fill-opacity:1;stroke:none;stroke-width:1px;stroke-linecap:butt;stroke-linejoin:miter;stroke-opacity:1"
       x="14.153321"
       y="36.929352"
       id="text6873"
       sodipodi:linespacing="125%"><tspan
         sodipodi:role="line"
         id="tspan6875"
         x="14.153321"
         y="36.929352"
         style="font-style:normal;font-variant:normal;font-weight:normal;font-stretch:normal;font-size:15.97503757px;font-family:Ubuntu;-inkscape-font-specification:Ubuntu">+</tspan></text>
    <text
       xml:space="preserve"
       style="font-style:normal;font-variant:normal;font-weight:normal;font-stretch:normal;font-size:12.5px;line-height:125%;font-family:Ubuntu;-inkscape-font-specification:Ubuntu;letter-spacing:0px;word-spacing:0px;fill:#008000;fill-opacity:1;stroke:none;stroke-width:1px;stroke-linecap:butt;stroke-linejoin:miter;stroke-opacity:1"
       x="28.664953"
       y="53.348667"
       id="text6885"
       sodipodi:linespacing="125%"><tspan
         sodipodi:role="line"
         id="tspan6887"
         x="28.664953"
         y="53.348667" /></text>
    <text
       xml:space="preserve"
       style="font-style:normal;font-variant:normal;font-weight:normal;font-stretch:normal;font-size:22.89533806px;line-height:125%;font-family:Ubuntu;-inkscape-font-specification:Ubuntu;letter-spacing:0px;word-spacing:0px;fill:#008000;fill-opacity:1;stroke:none;stroke-width:1px;stroke-linecap:butt;stroke-linejoin:miter;stroke-opacity:1"
       x="10.7005"
       y="79.671082"
       id="text6889"
       sodipodi:linespacing="125%"
       transform="scale(1.3279296,0.75305199)"><tspan
         sodipodi:role="line"
         id="tspan6891"
         x="10.7005"
         y="79.671082">-</tspan></text>
    <text
       xml:space="preserve"
       style="font-style:normal;font-variant:normal;font-weight:normal;font-stretch:normal;font-size:12.5px;line-height:125%;font-family:Ubuntu;-inkscape-font-specification:Ubuntu;letter-spacing:0px;word-spacing:0px;fill:#ff0000;fill-opacity:1;stroke:none;stroke-width:1px;stroke-linecap:butt;stroke-linejoin:miter;stroke-opacity:1"
       x="94.337486"
       y="63.532673"
       id="text6893"
       sodipodi:linespacing="125%"><tspan
         sodipodi:role="line"
         id="tspan6895"
         x="94.337486"
         y="63.532673">&lt;&gt;</tspan></text>
    <text
       xml:space="preserve"
       style="font-style:normal;font-variant:normal;font-weight:normal;font-stretch:normal;font-size:12.5px;line-height:125%;font-family:Ubuntu;-inkscape-font-specification:Ubuntu;letter-spacing:0px;word-spacing:0px;fill:#d45500;fill-opacity:1;stroke:none;stroke-width:1px;stroke-linecap:butt;stroke-linejoin:miter;stroke-opacity:1"
       x="203.79999"
       y="61.270172"
       id="text6899"
       sodipodi:linespacing="125%"><tspan
         sodipodi:role="line"
         id="tspan6901"
         x="203.79999"
         y="61.270172">[</tspan></text>
    <text
       xml:space="preserve"
       style="font-style:normal;font-variant:normal;font-weight:normal;font-stretch:normal;font-size:12.5px;line-height:125%;font-family:Ubuntu;-inkscape-font-specification:Ubuntu;letter-spacing:0px;word-spacing:0px;fill:#d45500;fill-opacity:1;stroke:none;stroke-width:1px;stroke-linecap:butt;stroke-linejoin:miter;stroke-opacity:1"
       x="232.89998"
       y="47.670174"
       id="text6903"
       sodipodi:linespacing="125%"><tspan
         sodipodi:role="line"
         id="tspan6905"
         x="232.89998"
         y="47.670174">]</tspan></text>
    <text
       xml:space="preserve"
       style="font-style:normal;font-variant:normal;font-weight:normal;font-stretch:normal;font-size:12.5px;line-height:125%;font-family:Ubuntu;-inkscape-font-specification:Ubuntu;letter-spacing:0px;word-spacing:0px;fill:#000000;fill-opacity:1;stroke:none;stroke-width:1px;stroke-linecap:butt;stroke-linejoin:miter;stroke-opacity:1"
       x="281.24997"
       y="51.582676"
       id="text6907"
       sodipodi:linespacing="125%"><tspan
         sodipodi:role="line"
         id="tspan6909"
         x="281.24997"
         y="51.582676" /></text>
    <text
       xml:space="preserve"
       style="font-style:normal;font-weight:normal;font-size:27.42537308px;line-height:125%;font-family:sans-serif;letter-spacing:0px;word-spacing:0px;fill:#0000ff;fill-opacity:1;stroke:none;stroke-width:1px;stroke-linecap:butt;stroke-linejoin:miter;stroke-opacity:1"
       x="311.46417"
       y="60.226139"
       id="text6911"
       sodipodi:linespacing="125%"><tspan
         sodipodi:role="line"
         id="tspan6913"
         x="311.46417"
         y="60.226139"
         style="font-style:normal;font-variant:normal;font-weight:normal;font-stretch:normal;font-size:27.42537117px;font-family:Ubuntu;-inkscape-font-specification:Ubuntu;fill:#0000ff">.</tspan></text>
    <text
       xml:space="preserve"
       style="font-style:normal;font-weight:normal;font-size:27.06910515px;line-height:125%;font-family:sans-serif;letter-spacing:0px;word-spacing:0px;fill:#00ffff;fill-opacity:1;stroke:none;stroke-width:1px;stroke-linecap:butt;stroke-linejoin:miter;stroke-opacity:1"
       x="396.91162"
       y="51.436947"
       id="text6915"
       sodipodi:linespacing="125%"><tspan
         sodipodi:role="line"
         id="tspan6917"
         x="396.91162"
         y="51.436947">,</tspan></text>
    <text
       xml:space="preserve"
       style="font-style:normal;font-weight:normal;font-size:12.5px;line-height:125%;font-family:sans-serif;letter-spacing:0px;word-spacing:0px;fill:#00ff00;fill-opacity:1;stroke:none;stroke-width:1px;stroke-linecap:butt;stroke-linejoin:miter;stroke-opacity:1"
       x="255.74997"
       y="72.332672"
       id="text6919"
       sodipodi:linespacing="125%"><tspan
         sodipodi:role="line"
         id="tspan6921"
         x="255.74997"
         y="72.332672"
         style="font-style:normal;font-variant:normal;font-weight:normal;font-stretch:normal;font-size:34.99999619px;font-family:Ubuntu;-inkscape-font-specification:Ubuntu;fill:#00ff00">#</tspan></text>
  </g>
  <g
     inkscape:groupmode="layer"
     id="layer6"
     inkscape:label="Layer 4">
    <g
       style="display:inline"
       id="g4260"
       transform="matrix(0.34504712,0,0,0.34504712,165.63163,43.477633)">
      <g
         id="g4186">
	<g
   id="g4188">
		<path
   id="path4190"
   d="m 29.739,50.223 c 0,7.875 9.048,11.5 10,4.605 0.423,-3.061 3.236,-1.529 4.611,-4.387 0.745,-1.549 0.349,-2.804 1.849,-3.573 2.766,-1.42 4.733,-5.461 4.54,-8.645 -0.104,-1.726 2.792,-4.559 3.719,-6 1.708,-2.658 1.708,-6.342 0,-9 -0.926,-1.441 -1.371,-4.274 -1.266,-6 0.193,-3.184 -1.481,-6.58 -4.247,-8 l 0,0 c -1.5,-0.77 -2.715,-0.451 -3.46,-2 -1.375,-2.857 -2.662,-3.199 -5.745,-3 -1.671,0.108 -2.417,-2.977 -5,-2.977 -0.014,0 -0.02,-0.023 -0.034,-0.023 -2.675,0 -4.966,1.445 -4.966,3 l 0,46 z"
   style="fill:#efc9b3"
   inkscape:connector-curvature="0" />

		<path
   id="path4192"
   d="m 36.239,59.477 c -0.11,0 -0.219,-0.004 -0.328,-0.011 -3.464,-0.238 -7.173,-4.01 -7.173,-9.244 l 0,-46 c 0,-2.168 2.732,-4 5.966,-4 l 0.505,0.05 c 1.569,0.181 2.56,1.239 3.301,2.032 0.431,0.46 0.849,0.979 1.163,0.92 3.35,-0.217 5.115,0.247 6.711,3.564 0.303,0.629 0.634,0.725 1.435,0.956 0.465,0.134 0.993,0.286 1.581,0.588 3.044,1.563 5.013,5.243 4.789,8.95 -0.096,1.588 0.336,4.195 1.11,5.398 1.907,2.968 1.907,7.114 0,10.082 -0.295,0.458 -0.727,0.991 -1.227,1.609 -0.892,1.102 -2.386,2.945 -2.335,3.789 0.227,3.736 -2.053,8.041 -5.082,9.596 -0.545,0.28 -0.637,0.563 -0.843,1.42 -0.114,0.474 -0.256,1.063 -0.561,1.697 -0.823,1.711 -2.114,2.201 -3.057,2.561 -0.936,0.355 -1.323,0.503 -1.465,1.529 -0.461,3.341 -2.563,4.514 -4.49,4.514 z M 34.27,2.237 c -2.073,0.137 -3.531,1.231 -3.531,1.985 l 0,46 c 0,4.433 3.14,7.1 5.31,7.249 1.466,0.073 2.438,-0.886 2.699,-2.78 0.304,-2.2 1.709,-2.735 2.735,-3.125 0.831,-0.316 1.488,-0.566 1.965,-1.559 0.212,-0.441 0.317,-0.878 0.419,-1.3 0.228,-0.945 0.487,-2.018 1.874,-2.729 2.307,-1.184 4.175,-4.78 3.999,-7.695 -0.098,-1.62 1.429,-3.506 2.777,-5.17 0.444,-0.548 0.863,-1.065 1.098,-1.432 1.499,-2.331 1.499,-5.587 0,-7.918 -1.043,-1.622 -1.543,-4.63 -1.423,-6.602 0.175,-2.893 -1.383,-5.857 -3.706,-7.05 C 48.071,9.898 47.66,9.78 47.264,9.665 46.33,9.395 45.272,9.09 44.582,7.655 43.427,5.256 42.593,5.043 39.802,5.219 38.584,5.277 37.763,4.432 37.049,3.669 36.22,2.782 35.651,2.244 34.738,2.244 L 34.27,2.237 Z"
   style="fill:#cf8c6d"
   inkscape:connector-curvature="0" />

	</g>

	<g
   id="g4194">
		<path
   id="path4196"
   d="m 29.739,50.223 c 0,7.875 -9.048,11.5 -10,4.605 -0.423,-3.061 -3.236,-1.529 -4.611,-4.387 -0.745,-1.549 -0.349,-2.804 -1.849,-3.573 -2.766,-1.42 -4.733,-5.461 -4.54,-8.645 0.104,-1.726 -2.792,-4.559 -3.719,-6 -1.708,-2.658 -1.708,-6.342 0,-9 0.926,-1.441 1.371,-4.274 1.266,-6 -0.193,-3.184 1.481,-6.58 4.247,-8 l 0,0 c 1.5,-0.77 2.715,-0.451 3.46,-2 1.375,-2.857 2.662,-3.199 5.745,-3 1.671,0.108 2.417,-2.583 5,-2.977 0.013,-0.002 0.022,-0.015 0.034,-0.023 1.449,-0.982 4.966,1.445 4.966,3 l 0,46 z"
   style="fill:#efc9b3"
   inkscape:connector-curvature="0" />

		<path
   id="path4198"
   d="m 23.238,59.477 c -1.927,0 -4.029,-1.173 -4.49,-4.513 C 18.606,53.938 18.219,53.79 17.283,53.435 16.341,53.077 15.05,52.585 14.227,50.874 13.922,50.24 13.78,49.65 13.665,49.177 13.458,48.321 13.367,48.037 12.822,47.757 9.794,46.202 7.514,41.898 7.74,38.161 7.791,37.317 6.297,35.473 5.405,34.372 4.905,33.754 4.473,33.221 4.178,32.763 2.271,29.795 2.271,25.649 4.178,22.681 4.952,21.478 5.384,18.87 5.288,17.283 5.063,13.576 7.033,9.895 10.077,8.333 10.664,8.031 11.192,7.879 11.658,7.745 12.459,7.514 12.79,7.418 13.092,6.789 c 1.597,-3.315 3.36,-3.779 6.711,-3.564 0.333,0.04 0.698,-0.327 1.281,-0.904 0.738,-0.73 1.736,-1.719 3.294,-2.026 0.887,-0.486 2.125,-0.365 3.447,0.336 1.451,0.77 2.915,2.179 2.915,3.593 l 0,46 c 0,5.234 -3.709,9.006 -7.173,9.244 -0.11,0.005 -0.219,0.009 -0.329,0.009 z M 18.441,5.172 c -1.842,0 -2.583,0.481 -3.547,2.484 -0.689,1.435 -1.748,1.74 -2.682,2.01 -0.396,0.115 -0.807,0.233 -1.222,0.446 -2.322,1.192 -3.881,4.157 -3.706,7.05 0.12,1.972 -0.38,4.979 -1.423,6.602 -1.499,2.331 -1.499,5.587 0,7.918 0.235,0.366 0.654,0.884 1.098,1.432 1.348,1.664 2.875,3.55 2.777,5.17 -0.176,2.915 1.692,6.512 3.999,7.695 1.387,0.712 1.646,1.784 1.874,2.729 0.102,0.422 0.207,0.858 0.42,1.3 0.477,0.992 1.134,1.242 1.965,1.559 1.026,0.39 2.432,0.925 2.735,3.125 0.261,1.895 1.222,2.856 2.699,2.78 2.17,-0.149 5.31,-2.816 5.31,-7.249 l 0,-46 C 28.738,3.925 28.035,3.006 26.886,2.397 26.099,1.98 25.561,1.949 25.369,2.032 L 25.213,2.176 24.884,2.237 C 23.852,2.394 23.19,3.05 22.489,3.743 21.751,4.474 20.915,5.3 19.672,5.222 19.213,5.19 18.805,5.172 18.441,5.172 Z"
   style="fill:#cf8c6d"
   inkscape:connector-curvature="0" />

	</g>

	<path
   id="path4200"
   d="m 44.739,49.223 c -0.552,0 -1,-0.447 -1,-1 0,-2.757 -2.243,-5 -5,-5 -0.552,0 -1,-0.447 -1,-1 0,-0.553 0.448,-1 1,-1 3.86,0 7,3.141 7,7 0,0.552 -0.448,1 -1,1 z"
   style="fill:#cf8c6d"
   inkscape:connector-curvature="0" />

	<path
   id="path4202"
   d="m 14.739,49.223 c -0.552,0 -1,-0.447 -1,-1 0,-3.859 3.14,-7 7,-7 0.552,0 1,0.447 1,1 0,0.553 -0.448,1 -1,1 -2.757,0 -5,2.243 -5,5 0,0.552 -0.448,1 -1,1 z"
   style="fill:#cf8c6d"
   inkscape:connector-curvature="0" />

	<path
   id="path4204"
   d="m 41.739,13.223 c -0.552,0 -1,-0.447 -1,-1 0,-2.757 2.243,-5 5,-5 0.552,0 1,0.447 1,1 0,0.553 -0.448,1 -1,1 -1.654,0 -3,1.346 -3,3 0,0.552 -0.448,1 -1,1 z"
   style="fill:#cf8c6d"
   inkscape:connector-curvature="0" />

	<path
   id="path4206"
   d="m 18.739,14.223 c -0.552,0 -1,-0.447 -1,-1 0,-2.206 -1.794,-4 -4,-4 -0.552,0 -1,-0.447 -1,-1 0,-0.553 0.448,-1 1,-1 3.309,0 6,2.691 6,6 0,0.552 -0.448,1 -1,1 z"
   style="fill:#cf8c6d"
   inkscape:connector-curvature="0" />

	<path
   id="path4208"
   d="m 50.739,38.223 c -0.552,0 -1,-0.447 -1,-1 0,-3.309 -2.691,-6 -6,-6 -4.411,0 -8,-3.589 -8,-8 0,-0.553 0.448,-1 1,-1 0.552,0 1,0.447 1,1 0,3.309 2.691,6 6,6 4.411,0 8,3.589 8,8 0,0.552 -0.448,1 -1,1 z"
   style="fill:#cf8c6d"
   inkscape:connector-curvature="0" />

	<g
   id="g4210">
		<path
   id="path4212"
   d="m 29.739,12.223 c -4.411,0 -8,3.589 -8,8 0,3.309 -2.691,6 -6,6 -0.552,0 -1,0.447 -1,1 0,0.553 0.448,1 1,1 4.411,0 8,-3.589 8,-8 0,-3.309 2.691,-6 6,-6 0.552,0 1,-0.447 1,-1 0,-0.553 -0.448,-1 -1,-1 z"
   style="fill:#f7e1d5"
   inkscape:connector-curvature="0" />

		<path
   id="path4214"
   d="m 26.276,27.859 c -0.391,-0.391 -1.023,-0.391 -1.414,0 -1.369,1.368 -2.123,3.188 -2.123,5.121 0,1.619 0.535,3.153 1.51,4.414 -0.975,1.261 -1.51,2.796 -1.51,4.414 0,1.934 0.754,3.753 2.123,5.121 0.195,0.195 0.451,0.293 0.707,0.293 0.256,0 0.512,-0.098 0.707,-0.293 0.391,-0.391 0.391,-1.023 0,-1.414 -0.991,-0.991 -1.537,-2.308 -1.537,-3.707 0,-1.399 0.546,-2.716 1.537,-3.707 0.391,-0.391 0.391,-1.023 0,-1.414 -0.991,-0.991 -1.537,-2.308 -1.537,-3.707 0,-1.399 0.546,-2.716 1.537,-3.707 0.39,-0.39 0.39,-1.023 0,-1.414 z"
   style="fill:#f7e1d5"
   inkscape:connector-curvature="0" />

		<path
   id="path4216"
   d="m 35.964,31.202 c -0.391,-0.391 -1.023,-0.391 -1.414,0 -0.391,0.391 -0.391,1.023 0,1.414 1.858,1.859 1.858,4.884 0,6.743 -1.279,1.279 -1.984,2.979 -1.984,4.785 0,1.806 0.705,3.506 1.984,4.785 0.195,0.195 0.451,0.293 0.707,0.293 0.256,0 0.512,-0.098 0.707,-0.293 0.391,-0.391 0.391,-1.023 0,-1.414 -0.901,-0.901 -1.398,-2.099 -1.398,-3.371 0,-1.272 0.497,-2.47 1.398,-3.371 2.638,-2.638 2.638,-6.932 0,-9.571 z"
   style="fill:#f7e1d5"
   inkscape:connector-curvature="0" />

		<path
   id="path4218"
   d="m 47.554,21.692 c -2.583,0.453 -5.066,-1.282 -5.521,-3.871 -0.313,-1.781 -1.3,-3.334 -2.779,-4.371 -1.479,-1.037 -3.276,-1.436 -5.057,-1.124 -0.544,0.096 -0.908,0.614 -0.812,1.158 0.096,0.544 0.613,0.902 1.158,0.813 1.258,-0.226 2.521,0.061 3.563,0.79 1.042,0.731 1.737,1.825 1.958,3.08 0.577,3.281 3.44,5.599 6.664,5.599 0.387,0 0.779,-0.034 1.173,-0.103 0.544,-0.096 0.908,-0.614 0.812,-1.158 -0.096,-0.544 -0.611,-0.907 -1.159,-0.813 z"
   style="fill:#f7e1d5"
   inkscape:connector-curvature="0" />

		<path
   id="path4220"
   d="m 13.609,22.796 c 1.645,0 3.195,-1.012 3.797,-2.643 0.191,-0.519 -0.073,-1.094 -0.591,-1.285 -0.517,-0.19 -1.094,0.074 -1.285,0.592 -0.391,1.058 -1.569,1.6 -2.624,1.209 -2.09,-0.768 -4.42,0.303 -5.192,2.393 -0.191,0.519 0.074,1.094 0.592,1.285 0.114,0.042 0.231,0.062 0.346,0.062 0.407,0 0.789,-0.25 0.938,-0.653 0.39,-1.057 1.564,-1.602 2.624,-1.209 0.46,0.168 0.931,0.249 1.395,0.249 z"
   style="fill:#f7e1d5"
   inkscape:connector-curvature="0" />

		<path
   id="path4222"
   d="m 16.794,38.1 c -1.056,-0.389 -1.599,-1.566 -1.21,-2.622 0,0 0,-0.001 0,-0.001 0.772,-2.091 -0.302,-4.42 -2.393,-5.193 -0.516,-0.189 -1.094,0.074 -1.285,0.592 -0.191,0.519 0.073,1.094 0.591,1.285 1.057,0.39 1.6,1.567 1.21,2.623 0,10e-4 0,0.002 0,0.002 -0.77,2.089 0.303,4.418 2.393,5.191 0.114,0.042 0.231,0.062 0.347,0.062 0.407,0 0.789,-0.25 0.938,-0.653 0.192,-0.519 -0.073,-1.093 -0.591,-1.286 z"
   style="fill:#f7e1d5"
   inkscape:connector-curvature="0" />

	</g>

</g>
      <g
         id="g4224">
</g>
      <g
         id="g4226">
</g>
      <g
         id="g4228">
</g>
      <g
         id="g4230">
</g>
      <g
         id="g4232">
</g>
      <g
         id="g4234">
</g>
      <g
         id="g4236">
</g>
      <g
         id="g4238">
</g>
      <g
         id="g4240">
</g>
      <g
         id="g4242">
</g>
      <g
         id="g4244">
</g>
      <g
         id="g4246">
</g>
      <g
         id="g4248">
</g>
      <g
         id="g4250">
</g>
      <g
         id="g4252">
</g>
    </g>
  </g>
</svg>
